<svg id="Layer_1" data-name="Layer 1" xmlns="http://www.w3.org/2000/svg" viewBox="0 0 409.96 297.97"><defs><style>.cls-1{fill:none;}.cls-2{fill:#4d94d0;}.cls-3{fill:#fff;}.cls-4{fill:#4d4d4d;}</style></defs><title>konfinity-admin-logo</title><rect class="cls-1" x="344.75" y="296.22" width="32.63" height="32.63" transform="translate(-277.07 262.45) rotate(-45)"/><rect class="cls-1" x="344.75" y="144.83" width="32.64" height="32.63" transform="translate(-170.02 218.11) rotate(-45)"/><path class="cls-2" d="M403.8,136.4a20.05,20.05,0,0,1,28.28,0l79.41,79.4c7.78,7.78,23.14,14.15,34.14,14.15h26.16L557.64,215.8,432.08,90.24a20.05,20.05,0,0,0-28.28,0L377,117c-7.77,7.78-8.95,19.33-2.6,25.68s17.9,5.17,25.68-2.6Z" transform="translate(-161.83 -84.41)"/><path class="cls-2" d="M544.23,236.84h-20L510.15,251l-78.6,79.29a19.85,19.85,0,0,1-28.16,0l-3.56-3.59c-7.74-7.81-19.23-9-25.52-2.67S369.21,342,377,349.82l26.44,26.66a19.85,19.85,0,0,0,28.16,0L555.9,251c7.75-7.81,5.08-14.2-5.92-14.2Z" transform="translate(-161.83 -84.41)"/><path class="cls-3" d="M320.14,330.39c-7.78,7.78-16.71,11.57-19.85,8.43L280.44,319l-4-4-28.28-28.28L212.45,251c-7.78-7.78-23.14-14.14-34.14-14.14h-6.15c-11,0-13.64,6.36-5.86,14.14L291.86,376.54a20.05,20.05,0,0,0,28.28,0l26.79-26.78c7.78-7.78,8.95-19.34,2.6-25.69s-17.9-5.17-25.68,2.61Z" transform="translate(-161.83 -84.41)"/><path class="cls-3" d="M178.31,236.84c11,0,26.36-6.36,34.14-14.14L248.16,187l28.28-28.28,4-4,19.85-19.85c3.14-3.14,12.07.65,19.85,8.43l3.71,3.71c7.78,7.78,19.34,8.95,25.68,2.61s5.18-17.91-2.6-25.69L320.14,97.14a20.05,20.05,0,0,0-28.28,0L166.3,222.7c-7.78,7.78-5.14,14.14,5.86,14.14Z" transform="translate(-161.83 -84.41)"/><polygon class="cls-4" points="100.47 152.43 100.47 152.43 100.47 152.43 100.47 152.43"/><path class="cls-2" d="M282.3,236.84c-11,0-13.64,6.36-5.86,14.14l4,4,28.29,28.28,15.12,15.12c7.78,7.78,19.34,8.95,25.68,2.61s5.18-17.9-2.6-25.68L322.59,251c-7.78-7.78-23.14-14.14-34.14-14.14Z" transform="translate(-161.83 -84.41)"/><path class="cls-2" d="M276.44,222.7c-7.78,7.78-5.14,14.14,5.86,14.14h6.15c11,0,26.36-6.36,34.14-14.14l24.34-24.34c7.78-7.78,8.95-19.33,2.6-25.68s-17.9-5.17-25.68,2.61l-15.12,15.12-28.29,28.28Z" transform="translate(-161.83 -84.41)"/></svg>